<svg width="20" height="20" viewBox="0 0 20 20" fill="none" xmlns="http://www.w3.org/2000/svg">
<path d="M16.3061 14.179L12.1245 9.99976L16.3029 5.81814C16.7848 5.33786 16.7848 4.56541 16.3045 4.08353L15.9163 3.69451C15.6882 3.46077 15.376 3.3335 15.0478 3.3335C15.0462 3.3335 15.0462 3.3335 15.0462 3.3335C14.718 3.3335 14.4098 3.46237 14.1793 3.69371L9.99928 7.87693L5.81765 3.69851C5.33817 3.21823 4.56652 3.21583 4.08464 3.69611L3.69562 4.08113C3.46108 4.31086 3.33301 4.62304 3.33301 4.95043C3.33301 5.27942 3.46188 5.5892 3.69322 5.81974L7.87644 9.99976L3.69722 14.1814C3.21534 14.6617 3.21534 15.4341 3.69562 15.9176L4.08384 16.3058C4.31358 16.5396 4.62496 16.6668 4.95315 16.6668C5.27974 16.6668 5.59192 16.5364 5.82165 16.3066L10.0009 12.1242L14.1809 16.3018C14.4178 16.5412 14.7332 16.662 15.0494 16.662C15.3624 16.662 15.6762 16.5428 15.9155 16.3042L16.3037 15.9168C16.5391 15.6887 16.6663 15.3765 16.6663 15.0483C16.6679 14.7201 16.5391 14.4103 16.3077 14.179H16.3061Z" fill="#7A8598"/>
</svg>
