<svg width="16" height="16" viewBox="0 0 16 16" fill="none" xmlns="http://www.w3.org/2000/svg">
<path fill-rule="evenodd" clip-rule="evenodd" d="M6.66667 10.6666C6.29848 10.6666 6 10.3681 6 9.99992L6 7.99992C6 7.63173 6.29848 7.33325 6.66667 7.33325C7.03486 7.33325 7.33333 7.63173 7.33333 7.99992L7.33333 9.99992C7.33333 10.3681 7.03486 10.6666 6.66667 10.6666Z" fill="white"/>
<path fill-rule="evenodd" clip-rule="evenodd" d="M9.33333 10.6666C8.96514 10.6666 8.66667 10.3681 8.66667 9.99992V7.99992C8.66667 7.63173 8.96514 7.33325 9.33333 7.33325C9.70152 7.33325 10 7.63173 10 7.99992V9.99992C10 10.3681 9.70152 10.6666 9.33333 10.6666Z" fill="white"/>
<path fill-rule="evenodd" clip-rule="evenodd" d="M2.68416 5.34439C2.52617 5.33361 2.31975 5.33325 2 5.33325V3.99992C2.00713 3.99992 2.01424 3.99992 2.02132 3.99992C2.03564 3.99992 2.04986 3.99992 2.06398 3.99992H13.936C13.9501 3.99992 13.9644 3.99992 13.9787 3.99992L14 3.99992V5.33325C13.6803 5.33325 13.4738 5.33361 13.3158 5.34439C13.1638 5.35476 13.106 5.37251 13.0782 5.384C12.9149 5.45166 12.7851 5.58144 12.7174 5.7448C12.7059 5.77254 12.6882 5.83043 12.6778 5.98243C12.667 6.14041 12.6667 6.34684 12.6667 6.66659L12.6667 10.7105C12.6667 11.3015 12.6667 11.8107 12.6119 12.2184C12.5532 12.6555 12.4207 13.0744 12.0809 13.4141C11.7411 13.7539 11.3222 13.8864 10.8852 13.9452C10.4774 14 9.96821 14 9.37722 13.9999H6.62278C6.03179 14 5.52258 14 5.11481 13.9452C4.67779 13.8864 4.25889 13.7539 3.91912 13.4141C3.57934 13.0744 3.44685 12.6555 3.38809 12.2184C3.33327 11.8107 3.3333 11.3015 3.33333 10.7105L3.33333 6.66659C3.33333 6.34684 3.33297 6.14041 3.32219 5.98243C3.31182 5.83043 3.29408 5.77254 3.28259 5.7448C3.21492 5.58144 3.08514 5.45166 2.92179 5.384C2.89405 5.37251 2.83616 5.35476 2.68416 5.34439ZM11.4485 5.33325H4.55147C4.61399 5.51832 4.6397 5.70501 4.65243 5.89166C4.66668 6.1005 4.66668 6.35283 4.66667 6.64526L4.66667 10.6666C4.66667 11.314 4.66808 11.7324 4.70954 12.0408C4.74841 12.3299 4.81118 12.4206 4.86193 12.4713C4.91268 12.5221 5.00331 12.5848 5.29247 12.6237C5.60081 12.6652 6.01928 12.6666 6.66667 12.6666H9.33333C9.98072 12.6666 10.3992 12.6652 10.7075 12.6237C10.9967 12.5848 11.0873 12.5221 11.1381 12.4713C11.1888 12.4206 11.2516 12.3299 11.2905 12.0408C11.3319 11.7324 11.3333 11.314 11.3333 10.6666V6.64526C11.3333 6.35283 11.3333 6.1005 11.3476 5.89166C11.3603 5.70501 11.386 5.51832 11.4485 5.33325Z" fill="white"/>
<path fill-rule="evenodd" clip-rule="evenodd" d="M8.93728 1.41407C8.65464 1.35985 8.32616 1.33325 8 1.33325C7.67384 1.33325 7.34536 1.35985 7.06272 1.41407C6.92142 1.44118 6.78309 1.47678 6.65776 1.52367C6.54392 1.56626 6.38866 1.63697 6.2573 1.75953C5.98809 2.01071 5.97347 2.43256 6.22465 2.70177C6.46167 2.95581 6.85067 2.98315 7.11997 2.77437C7.12151 2.77377 7.12318 2.77313 7.12499 2.77246C7.16057 2.75915 7.22236 2.74109 7.31392 2.72353C7.49699 2.68841 7.73914 2.66659 8 2.66659C8.26086 2.66659 8.50301 2.68841 8.68608 2.72353C8.77765 2.74109 8.83943 2.75915 8.87501 2.77246C8.87682 2.77313 8.87849 2.77377 8.88003 2.77437C9.14933 2.98315 9.53833 2.95581 9.77535 2.70177C10.0265 2.43256 10.0119 2.01071 9.7427 1.75953C9.61134 1.63697 9.45608 1.56626 9.34224 1.52367C9.21691 1.47678 9.07858 1.44118 8.93728 1.41407Z" fill="white"/>
</svg>
