<svg width="16" height="16" viewBox="0 0 16 16" fill="none" xmlns="http://www.w3.org/2000/svg">
<path fill-rule="evenodd" clip-rule="evenodd" d="M3.29675 3.33326C3.30882 3.33326 3.32091 3.33326 3.33302 3.33326L10.6415 3.33326C10.7969 3.33323 10.9554 3.3332 11.0927 3.346C11.2502 3.36069 11.4264 3.39522 11.6054 3.49103C11.7844 3.58684 11.9108 3.71421 12.0104 3.83713C12.0972 3.94426 12.1851 4.07616 12.2713 4.20554L14.0761 6.91266C14.1827 7.0726 14.2901 7.23362 14.3669 7.3812C14.4548 7.55006 14.5318 7.75363 14.5318 7.99993C14.5318 8.24622 14.4548 8.4498 14.3669 8.61865C14.2901 8.76624 14.1827 8.92726 14.0761 9.0872L12.2713 11.7943C12.1851 11.9237 12.0972 12.0556 12.0104 12.1627C11.9108 12.2856 11.7844 12.413 11.6054 12.5088C11.4264 12.6046 11.2502 12.6392 11.0927 12.6539C10.9554 12.6667 10.7969 12.6666 10.6415 12.6666L3.33302 12.6666C3.32091 12.6666 3.30882 12.6666 3.29674 12.6666C3.01403 12.6667 2.73928 12.6667 2.51267 12.6362C2.2572 12.6019 1.96569 12.5182 1.72354 12.2761C1.4814 12.0339 1.39772 11.7424 1.36337 11.4869C1.3329 11.2603 1.33296 10.9856 1.33301 10.7029C1.33301 10.6908 1.33302 10.6787 1.33302 10.6666V5.33326C1.33302 5.32116 1.33301 5.30907 1.33301 5.29699C1.33296 5.01428 1.3329 4.73953 1.36337 4.51292C1.39772 4.25745 1.4814 3.96593 1.72354 3.72379C1.96569 3.48164 2.2572 3.39796 2.51267 3.36361C2.73928 3.33315 3.01403 3.3332 3.29675 3.33326ZM2.68548 4.68572C2.68526 4.68731 2.68504 4.68893 2.68481 4.69058C2.66777 4.81737 2.66635 5.00015 2.66635 5.33326V10.6666C2.66635 10.9997 2.66777 11.1825 2.68481 11.3093C2.68504 11.3109 2.68526 11.3125 2.68548 11.3141C2.68706 11.3144 2.68868 11.3146 2.69033 11.3148C2.81713 11.3318 2.9999 11.3333 3.33302 11.3333H10.6194C10.8063 11.3333 10.9012 11.3326 10.9689 11.3263L10.9723 11.326L10.9745 11.3233C11.0173 11.2705 11.0705 11.1919 11.1741 11.0364L12.9519 8.36973C13.0795 8.17841 13.1449 8.07863 13.1841 8.00332L13.1858 7.99993L13.1841 7.99654C13.1449 7.92122 13.0795 7.82144 12.9519 7.63013L11.1741 4.96346C11.0705 4.808 11.0173 4.72938 10.9745 4.67653L10.9723 4.6739L10.9689 4.67358C10.9012 4.66726 10.8063 4.66659 10.6194 4.66659H3.33302C2.9999 4.66659 2.81713 4.66801 2.69033 4.68506C2.68868 4.68528 2.68706 4.6855 2.68548 4.68572Z" fill="white"/>
<path d="M10.6664 7.99993C10.6664 8.36812 10.3679 8.66659 9.99968 8.66659C9.63149 8.66659 9.33302 8.36812 9.33302 7.99993C9.33302 7.63174 9.63149 7.33326 9.99968 7.33326C10.3679 7.33326 10.6664 7.63174 10.6664 7.99993Z" fill="white"/>
<path fill-rule="evenodd" clip-rule="evenodd" d="M8.66635 7.99993C8.66635 7.26355 9.2633 6.66659 9.99968 6.66659C10.7361 6.66659 11.333 7.26355 11.333 7.99993C11.333 8.73631 10.7361 9.33326 9.99968 9.33326C9.2633 9.33326 8.66635 8.73631 8.66635 7.99993Z" fill="white"/>
</svg>
